<?xml version="1.0" encoding="iso-8859-1"?>
<!-- Generator: Adobe Illustrator 17.0.0, SVG Export Plug-In . SVG Version: 6.00 Build 0)  -->
<!DOCTYPE svg PUBLIC "-//W3C//DTD SVG 1.1//EN" "http://www.w3.org/Graphics/SVG/1.1/DTD/svg11.dtd">
<svg version="1.1" id="Capa_1" xmlns="http://www.w3.org/2000/svg" xmlns:xlink="http://www.w3.org/1999/xlink" x="0px" y="0px"
	 width="98.796px" height="98.796px" viewBox="0 0 98.796 98.796" style="enable-background:new 0 0 98.796 98.796;"
	 xml:space="preserve">
<g>
	<g>
		<path d="M75.195,60.736c0,0.227,0.016,0.446,0.034,0.667c0.339,3.999,3.686,7.141,7.773,7.141c3.977,0,7.253-2.977,7.736-6.824
			c0.042-0.322,0.069-0.648,0.069-0.982c0-4.312-3.495-7.804-7.805-7.804C78.689,52.934,75.194,56.427,75.195,60.736z
			 M87.846,60.077h-2.245c-0.062-0.246-0.159-0.474-0.283-0.687l1.593-1.593C87.402,58.45,87.729,59.225,87.846,60.077z
			 M86.907,63.699l-1.596-1.595c0.124-0.208,0.218-0.438,0.282-0.677h2.26C87.734,62.273,87.399,63.05,86.907,63.699z
			 M83.676,63.335c0.239-0.062,0.469-0.151,0.677-0.273l1.587,1.587c-0.65,0.491-1.419,0.822-2.264,0.939V63.335z M83.676,55.896
			c0.851,0.118,1.627,0.447,2.28,0.943l-1.59,1.591c-0.214-0.127-0.444-0.226-0.69-0.288V55.896z M82.324,58.142
			c-0.246,0.062-0.476,0.161-0.69,0.288l-1.59-1.59c0.653-0.497,1.428-0.826,2.28-0.944V58.142z M80.059,64.649l1.588-1.589
			c0.209,0.123,0.437,0.212,0.677,0.275v2.252C81.48,65.469,80.71,65.137,80.059,64.649z M78.157,61.426H80.4
			c0.064,0.242,0.167,0.467,0.291,0.676l-1.601,1.603C78.598,63.055,78.277,62.273,78.157,61.426z M80.4,60.075l-2.245-0.002
			c0.117-0.849,0.442-1.625,0.935-2.278l1.593,1.593C80.559,59.601,80.463,59.831,80.4,60.075L80.4,60.075z"/>
		<path d="M9.487,60.736c0,0.227,0.016,0.446,0.034,0.667c0.338,3.999,3.686,7.141,7.773,7.141c3.976,0,7.253-2.977,7.735-6.824
			c0.042-0.322,0.069-0.648,0.069-0.982c0-4.312-3.495-7.804-7.805-7.804C12.98,52.934,9.485,56.427,9.487,60.736z M22.137,60.077
			h-2.245c-0.061-0.246-0.159-0.474-0.283-0.687l1.594-1.593C21.694,58.45,22.02,59.225,22.137,60.077z M21.198,63.698l-1.596-1.594
			c0.124-0.208,0.218-0.438,0.282-0.677h2.26C22.025,62.273,21.689,63.05,21.198,63.698z M17.967,63.335
			c0.239-0.062,0.469-0.151,0.677-0.273l1.587,1.587c-0.65,0.491-1.419,0.822-2.264,0.939V63.335z M17.967,55.896
			c0.85,0.118,1.627,0.447,2.28,0.943l-1.591,1.591c-0.213-0.127-0.443-0.226-0.689-0.288
			C17.967,58.142,17.967,55.896,17.967,55.896z M16.616,58.142c-0.245,0.062-0.475,0.161-0.689,0.288l-1.59-1.59
			c0.652-0.497,1.427-0.826,2.279-0.944V58.142z M14.351,64.649l1.588-1.589c0.209,0.123,0.438,0.212,0.677,0.275v2.252
			C15.77,65.469,15.002,65.137,14.351,64.649z M12.449,61.426h2.243c0.064,0.242,0.167,0.467,0.291,0.676l-1.601,1.603
			C12.888,63.055,12.569,62.273,12.449,61.426z M14.69,60.075l-2.246-0.002c0.118-0.849,0.443-1.625,0.936-2.278l1.593,1.593
			C14.849,59.601,14.753,59.831,14.69,60.075L14.69,60.075z"/>
		<path d="M0.002,52.098l0.054,1.399c0.121,3.198,1.915,6.099,4.723,7.636l2.692,1.475l0.646-0.001
			c-0.072-0.351-0.132-0.709-0.162-1.074c-0.022-0.265-0.04-0.527-0.04-0.798c0-5.169,4.206-9.374,9.376-9.374
			c5.169,0,9.375,4.205,9.375,9.374c0,0.373-0.027,0.761-0.081,1.177c-0.028,0.223-0.071,0.44-0.114,0.658l47.323-0.096
			c-0.059-0.308-0.104-0.622-0.131-0.941c-0.022-0.265-0.04-0.527-0.04-0.798c0-5.169,4.206-9.374,9.376-9.374
			c5.169,0,9.375,4.205,9.375,9.374c0,0.373-0.027,0.761-0.081,1.177c-0.011,0.092-0.032,0.179-0.046,0.268l1.633-0.368
			c3.111-0.701,5.199-3.6,4.886-6.775c-0.224-2.272-0.842-4.794-2.316-6.714c-4.232-5.516-21.892-7.766-21.892-7.766
			s-10.17-5.409-20.173-8.096c-16.191-4.35-36.647-1.147-43.24,0.092c-1.254,0.235-2.17,1.313-2.197,2.589v0.003l-5.545,6.141
			c-0.795,0.88-1.234,2.024-1.233,3.211l0.003,4.521l-1.5,1.433C0.223,50.882-0.02,51.48,0.002,52.098z M64.606,44.057
			l-29.381-2.318V33.19c18.345-0.624,29.306,5.11,29.306,5.11l0.724,2.893C64.448,42.223,64.606,44.057,64.606,44.057z
			 M16.373,38.268c-0.357-0.42-0.469-0.996-0.297-1.52c0.171-0.524,0.601-0.922,1.137-1.051c5.299-1.28,10.236-1.997,14.779-2.327
			v8.115l-13.815-1.09L16.373,38.268z"/>
	</g>
</g>
</svg>
