<?xml version="1.0" encoding="iso-8859-1"?>
<!-- Generator: Adobe Illustrator 17.0.0, SVG Export Plug-In . SVG Version: 6.00 Build 0)  -->
<!DOCTYPE svg PUBLIC "-//W3C//DTD SVG 1.1//EN" "http://www.w3.org/Graphics/SVG/1.1/DTD/svg11.dtd">
<svg version="1.1" id="Capa_1" xmlns="http://www.w3.org/2000/svg" xmlns:xlink="http://www.w3.org/1999/xlink" x="0px" y="0px"
	 width="512px" height="512px" viewBox="-49 141 512 512" style="enable-background:new -49 141 512 512;" xml:space="preserve">
<path d="M398.229,208.855h-43.181v-43.18C355.049,152.103,343.944,141,330.379,141H15.771C2.2,141-8.904,152.103-8.904,165.675
	V560.47c0,13.571,11.103,24.675,24.675,24.675h43.181v43.181c0,13.571,11.098,24.675,24.675,24.675h209.729
	c13.565,0,32.762-7.612,42.638-16.908l68.929-64.882c9.888-9.296,17.969-28.012,17.969-41.583l0.012-296.096
	C422.904,219.959,411.8,208.855,398.229,208.855z M15.771,566.639c-3.343,0-6.168-2.825-6.168-6.168V165.675
	c0-3.343,2.825-6.168,6.168-6.168H330.38c3.337,0,6.168,2.825,6.168,6.168v43.181H83.626c-13.577,0-24.675,11.103-24.675,24.675
	v333.108H15.771z M83.626,634.494c-3.35,0-6.168-2.825-6.168-6.168V233.53c0-3.343,2.819-6.168,6.168-6.168h314.602
	c3.343,0,6.168,2.825,6.168,6.168l-0.012,296.096c0,1.832-0.334,3.954-0.839,6.168h-70.095
	c-18.721,0.037-33.89,15.206-33.928,33.928v64.024c-2.202,0.445-4.324,0.746-6.168,0.746H83.626V634.494z M323.311,622.613
	c-1.412,1.327-3.251,2.628-5.281,3.867v-56.758c0-4.238,1.709-8.051,4.528-10.888c2.844-2.819,6.656-4.533,10.894-4.533h61.718
	c-0.957,1.301-1.936,2.498-2.93,3.436L323.311,622.613z"/>
<path d="M151.488,313.723h178.891c5.108,0,9.253-4.139,9.253-9.253s-4.146-9.253-9.253-9.253H151.488
	c-5.114,0-9.253,4.139-9.253,9.253C142.235,309.584,146.375,313.723,151.488,313.723z"/>
<path d="M151.488,437.096h178.891c5.108,0,9.253-4.139,9.253-9.253c0-5.114-4.146-9.253-9.253-9.253H151.488
	c-5.114,0-9.253,4.139-9.253,9.253C142.235,432.957,146.375,437.096,151.488,437.096z"/>
<path d="M250.187,480.277h-98.698c-5.114,0-9.253,4.139-9.253,9.253s4.139,9.253,9.253,9.253h98.698
	c5.108,0,9.247-4.139,9.247-9.253S255.295,480.277,250.187,480.277z"/>
<path d="M151.488,375.409h178.891c5.108,0,9.253-4.139,9.253-9.253c0-5.114-4.146-9.253-9.253-9.253H151.488
	c-5.114,0-9.253,4.139-9.253,9.253C142.235,371.27,146.375,375.409,151.488,375.409z"/>
</svg>
